<svg width="1440" height="614" viewBox="0 0 1440 614" fill="none" xmlns="http://www.w3.org/2000/svg">
<g opacity="0.1">
<path d="M1348 151H1177C1177 151 1185.5 140.196 1194.85 138.943C1194.85 138.943 1213.07 86.3701 1243.58 86.0027C1271.96 85.657 1283.33 118.415 1283.33 118.415C1283.33 118.415 1296.47 103.765 1309.03 110.463C1321.59 117.162 1328.71 136.393 1328.71 136.393C1328.71 136.393 1342.89 143.632 1348 151Z" fill="#4285F4"/>
<path d="M607 156H504C504 156 509.119 149.518 514.749 148.766C514.749 148.766 525.726 117.222 544.106 117.002C561.197 116.794 568.049 136.449 568.049 136.449C568.049 136.449 575.963 127.659 583.527 131.678C591.092 135.697 595.378 147.236 595.378 147.236C595.378 147.236 603.923 151.579 607 156Z" fill="#4285F4"/>
<path d="M198 194H72C72 194 78.2622 186.52 85.149 185.653C85.149 185.653 98.5774 149.256 121.062 149.002C141.969 148.763 150.351 171.441 150.351 171.441C150.351 171.441 160.032 161.299 169.286 165.936C178.54 170.573 183.783 183.887 183.783 183.887C183.783 183.887 194.236 188.899 198 194Z" fill="#4285F4"/>
<path d="M255 94H165C165 94 169.473 88.6811 174.392 88.0641C174.392 88.0641 183.984 62.1822 200.044 62.0013C214.978 61.8311 220.965 77.9581 220.965 77.9581C220.965 77.9581 227.88 70.7457 234.49 74.0434C241.1 77.3411 244.845 86.8088 244.845 86.8088C244.845 86.8088 252.312 90.3725 255 94Z" fill="#4285F4"/>
<path d="M1263 261H1157C1157 261 1162.27 254.351 1168.06 253.58C1168.06 253.58 1179.36 221.228 1198.27 221.002C1215.86 220.789 1222.91 240.948 1222.91 240.948C1222.91 240.948 1231.06 231.932 1238.84 236.054C1246.63 240.176 1251.04 252.011 1251.04 252.011C1251.04 252.011 1259.83 256.466 1263 261Z" fill="#4285F4"/>
<path d="M145 320H39C39 320 44.2682 313.351 50.0618 312.58C50.0618 312.58 61.3587 280.228 80.2745 280.002C97.8628 279.789 104.915 299.948 104.915 299.948C104.915 299.948 113.059 290.932 120.844 295.054C128.628 299.176 133.039 311.011 133.039 311.011C133.039 311.011 141.834 315.466 145 320Z" fill="#4285F4"/>
<path d="M1348 368H1242C1242 368 1247.27 361.351 1253.06 360.58C1253.06 360.58 1264.36 328.228 1283.27 328.002C1300.86 327.789 1307.91 347.948 1307.91 347.948C1307.91 347.948 1316.06 338.932 1323.84 343.054C1331.63 347.176 1336.04 359.011 1336.04 359.011C1336.04 359.011 1344.83 363.466 1348 368Z" fill="#4285F4"/>
<path d="M1498 258H1392C1392 258 1397.27 251.351 1403.06 250.58C1403.06 250.58 1414.36 218.228 1433.27 218.002C1450.86 217.789 1457.91 237.948 1457.91 237.948C1457.91 237.948 1466.06 228.932 1473.84 233.054C1481.63 237.176 1486.04 249.011 1486.04 249.011C1486.04 249.011 1494.83 253.466 1498 258Z" fill="#4285F4"/>
<path d="M218 399H112C112 399 117.268 392.351 123.062 391.58C123.062 391.58 134.359 359.228 153.274 359.002C170.863 358.789 177.915 378.948 177.915 378.948C177.915 378.948 186.059 369.932 193.844 374.054C201.628 378.176 206.039 390.011 206.039 390.011C206.039 390.011 214.834 394.466 218 399Z" fill="#4285F4"/>
<path d="M1434 52H1328C1328 52 1333.27 45.3513 1339.06 44.5801C1339.06 44.5801 1350.36 12.2277 1369.27 12.0017C1386.86 11.7889 1393.91 31.9476 1393.91 31.9476C1393.91 31.9476 1402.06 22.9321 1409.84 27.0542C1417.63 31.1764 1422.04 43.011 1422.04 43.011C1422.04 43.011 1430.83 47.4656 1434 52Z" fill="#4285F4"/>
<path d="M72 52H-80C-80 52 -72.4456 43.3567 -64.1378 42.3541C-64.1378 42.3541 -47.9384 0.296045 -20.814 0.00217402C4.40701 -0.27441 14.5192 25.9319 14.5192 25.9319C14.5192 25.9319 26.1978 14.2117 37.3608 19.5705C48.5239 24.9293 54.849 40.3143 54.849 40.3143C54.849 40.3143 67.4594 46.1053 72 52Z" fill="#4285F4"/>
<path d="M1169 431H1063C1063 431 1068.27 424.351 1074.06 423.58C1074.06 423.58 1085.36 391.228 1104.27 391.002C1121.86 390.789 1128.91 410.948 1128.91 410.948C1128.91 410.948 1137.06 401.932 1144.84 406.054C1152.63 410.176 1157.04 422.011 1157.04 422.011C1157.04 422.011 1165.83 426.466 1169 431Z" fill="#4285F4"/>
<path d="M39 462H-67C-67 462 -61.7318 455.351 -55.9382 454.58C-55.9382 454.58 -44.6413 422.228 -25.7255 422.002C-8.13723 421.789 -1.0853 441.948 -1.0853 441.948C-1.0853 441.948 7.05896 432.932 14.8437 437.054C22.6285 441.176 27.0394 453.011 27.0394 453.011C27.0394 453.011 35.8335 457.466 39 462Z" fill="#4285F4"/>
<path d="M1401 505H1295C1295 505 1300.27 498.351 1306.06 497.58C1306.06 497.58 1317.36 465.228 1336.27 465.002C1353.86 464.789 1360.91 484.948 1360.91 484.948C1360.91 484.948 1369.06 475.932 1376.84 480.054C1384.63 484.176 1389.04 496.011 1389.04 496.011C1389.04 496.011 1397.83 500.466 1401 505Z" fill="#4285F4"/>
<path d="M1478 625H1372C1372 625 1377.27 618.351 1383.06 617.58C1383.06 617.58 1394.36 585.228 1413.27 585.002C1430.86 584.789 1437.91 604.948 1437.91 604.948C1437.91 604.948 1446.06 595.932 1453.84 600.054C1461.63 604.176 1466.04 616.011 1466.04 616.011C1466.04 616.011 1474.83 620.466 1478 625Z" fill="#4285F4"/>
<path d="M271 536H165C165 536 170.268 529.351 176.062 528.58C176.062 528.58 187.359 496.228 206.274 496.002C223.863 495.789 230.915 515.948 230.915 515.948C230.915 515.948 239.059 506.932 246.844 511.054C254.628 515.176 259.039 527.011 259.039 527.011C259.039 527.011 267.834 531.466 271 536Z" fill="#4285F4"/>
<path d="M1263 559H1157C1157 559 1162.27 552.351 1168.06 551.58C1168.06 551.58 1179.36 519.228 1198.27 519.002C1215.86 518.789 1222.91 538.948 1222.91 538.948C1222.91 538.948 1231.06 529.932 1238.84 534.054C1246.63 538.176 1251.04 550.011 1251.04 550.011C1251.04 550.011 1259.83 554.466 1263 559Z" fill="#4285F4"/>
<path d="M133 590H27C27 590 32.2682 583.351 38.0618 582.58C38.0618 582.58 49.3587 550.228 68.2745 550.002C85.8628 549.789 92.9147 569.948 92.9147 569.948C92.9147 569.948 101.059 560.932 108.844 565.054C116.628 569.176 121.039 581.011 121.039 581.011C121.039 581.011 129.834 585.466 133 590Z" fill="#4285F4"/>
</g>
</svg>
