<svg width="48" height="48" viewBox="0 0 48 48" fill="none" xmlns="http://www.w3.org/2000/svg">
<circle cx="24" cy="24" r="24" fill="#C3E0EA"/>
<path d="M24 13C17.376 13 12 18.376 12 25C12 31.624 17.376 37 24 37C30.624 37 36 31.624 36 25C36 18.376 30.624 13 24 13ZM19.2 31.6C18.4044 31.6 17.6413 31.2839 17.0787 30.7213C16.5161 30.1587 16.2 29.3956 16.2 28.6C16.2 27.8044 16.5161 27.0413 17.0787 26.4787C17.6413 25.9161 18.4044 25.6 19.2 25.6C19.9956 25.6 20.7587 25.9161 21.3213 26.4787C21.8839 27.0413 22.2 27.8044 22.2 28.6C22.2 29.3956 21.8839 30.1587 21.3213 30.7213C20.7587 31.2839 19.9956 31.6 19.2 31.6ZM21 20.2C21 19.4044 21.3161 18.6413 21.8787 18.0787C22.4413 17.5161 23.2044 17.2 24 17.2C24.7956 17.2 25.5587 17.5161 26.1213 18.0787C26.6839 18.6413 27 19.4044 27 20.2C27 20.9956 26.6839 21.7587 26.1213 22.3213C25.5587 22.8839 24.7956 23.2 24 23.2C23.2044 23.2 22.4413 22.8839 21.8787 22.3213C21.3161 21.7587 21 20.9956 21 20.2ZM28.8 31.6C28.0044 31.6 27.2413 31.2839 26.6787 30.7213C26.1161 30.1587 25.8 29.3956 25.8 28.6C25.8 27.8044 26.1161 27.0413 26.6787 26.4787C27.2413 25.9161 28.0044 25.6 28.8 25.6C29.5956 25.6 30.3587 25.9161 30.9213 26.4787C31.4839 27.0413 31.8 27.8044 31.8 28.6C31.8 29.3956 31.4839 30.1587 30.9213 30.7213C30.3587 31.2839 29.5956 31.6 28.8 31.6Z" fill="#4285F4"/>
</svg>
