<svg width="48" height="48" viewBox="0 0 48 48" fill="none" xmlns="http://www.w3.org/2000/svg">
<circle cx="24" cy="24" r="24" fill="#C3EAD7"/>
<path d="M18.6 31C18.6 32.6569 17.2569 34 15.6 34H15C13.3431 34 12 32.6569 12 31V23C12 21.3431 13.3431 20 15 20H15.6C17.2569 20 18.6 21.3431 18.6 23V31ZM27.3 16C27.3 14.3431 25.9569 13 24.3 13H23.7C22.0431 13 20.7 14.3431 20.7 16V31C20.7 32.6569 22.0431 34 23.7 34H24.3C25.9569 34 27.3 32.6569 27.3 31V16ZM36 25.3333C36 23.6765 34.6569 22.3333 33 22.3333H32.4C30.7431 22.3333 29.4 23.6765 29.4 25.3333V31C29.4 32.6569 30.7431 34 32.4 34H33C34.6569 34 36 32.6569 36 31V25.3333Z" fill="#0F9D57"/>
</svg>
