<svg width="256" height="48" viewBox="0 0 256 48" fill="none" xmlns="http://www.w3.org/2000/svg">
<path d="M0 0H232C245.255 0 256 10.7452 256 24C256 37.2548 245.255 48 232 48H0V0Z" fill="#C3EAD7"/>
<path d="M39.6 31C39.6 32.6569 38.2569 34 36.6 34H36C34.3431 34 33 32.6569 33 31V23C33 21.3431 34.3431 20 36 20H36.6C38.2569 20 39.6 21.3431 39.6 23V31ZM48.3 16C48.3 14.3431 46.9569 13 45.3 13H44.7C43.0431 13 41.7 14.3431 41.7 16V31C41.7 32.6569 43.0431 34 44.7 34H45.3C46.9569 34 48.3 32.6569 48.3 31V16ZM57 25.3333C57 23.6765 55.6569 22.3333 54 22.3333H53.4C51.7431 22.3333 50.4 23.6765 50.4 25.3333V31C50.4 32.6569 51.7431 34 53.4 34H54C55.6569 34 57 32.6569 57 31V25.3333Z" fill="#0F9D57"/>
<path d="M87.376 35H77.728V17.816H79.936V32.888H87.376V35ZM94.5771 35.384C92.8491 35.384 91.4251 34.792 90.3051 33.608C89.1851 32.424 88.6251 30.928 88.6251 29.12C88.6251 27.328 89.1691 25.84 90.2571 24.656C91.3451 23.456 92.7371 22.856 94.4331 22.856C96.1771 22.856 97.5611 23.424 98.5851 24.56C99.6251 25.68 100.145 27.256 100.145 29.288L100.121 29.528H90.8811C90.9131 30.68 91.2971 31.608 92.0331 32.312C92.7691 33.016 93.6491 33.368 94.6731 33.368C96.0811 33.368 97.1851 32.664 97.9851 31.256L99.9531 32.216C99.4251 33.208 98.6891 33.984 97.7451 34.544C96.8171 35.104 95.7611 35.384 94.5771 35.384ZM91.0491 27.704H97.7931C97.7291 26.888 97.3931 26.216 96.7851 25.688C96.1931 25.144 95.3931 24.872 94.3851 24.872C93.5531 24.872 92.8331 25.128 92.2251 25.64C91.6331 26.152 91.2411 26.84 91.0491 27.704ZM103.89 31.4C103.89 31.976 104.13 32.456 104.61 32.84C105.106 33.224 105.682 33.416 106.338 33.416C107.266 33.416 108.09 33.072 108.81 32.384C109.546 31.696 109.914 30.888 109.914 29.96C109.226 29.416 108.266 29.144 107.034 29.144C106.138 29.144 105.386 29.36 104.778 29.792C104.186 30.224 103.89 30.76 103.89 31.4ZM106.746 22.856C108.378 22.856 109.666 23.296 110.61 24.176C111.554 25.04 112.026 26.232 112.026 27.752V35H109.914V33.368H109.818C108.906 34.712 107.69 35.384 106.17 35.384C104.874 35.384 103.786 35 102.906 34.232C102.042 33.464 101.61 32.504 101.61 31.352C101.61 30.136 102.066 29.168 102.978 28.448C103.906 27.728 105.138 27.368 106.674 27.368C107.986 27.368 109.066 27.608 109.914 28.088V27.584C109.914 26.816 109.61 26.168 109.002 25.64C108.394 25.096 107.682 24.824 106.866 24.824C105.634 24.824 104.658 25.344 103.938 26.384L101.994 25.16C103.066 23.624 104.65 22.856 106.746 22.856ZM119.679 33.368C120.767 33.368 121.655 32.976 122.343 32.192C123.063 31.408 123.423 30.384 123.423 29.12C123.423 27.888 123.063 26.872 122.343 26.072C121.639 25.272 120.751 24.872 119.679 24.872C118.623 24.872 117.735 25.272 117.015 26.072C116.295 26.872 115.935 27.888 115.935 29.12C115.935 30.368 116.295 31.384 117.015 32.168C117.735 32.968 118.623 33.368 119.679 33.368ZM119.319 35.384C117.783 35.384 116.463 34.776 115.359 33.56C114.271 32.328 113.727 30.848 113.727 29.12C113.727 27.392 114.271 25.912 115.359 24.68C116.463 23.464 117.783 22.856 119.319 22.856C120.183 22.856 120.967 23.04 121.671 23.408C122.391 23.776 122.943 24.264 123.327 24.872H123.423L123.327 23.24V17.816H125.535V35H123.423V33.368H123.327C122.943 33.976 122.391 34.464 121.671 34.832C120.967 35.2 120.183 35.384 119.319 35.384ZM133.39 35.384C131.662 35.384 130.238 34.792 129.118 33.608C127.998 32.424 127.438 30.928 127.438 29.12C127.438 27.328 127.982 25.84 129.07 24.656C130.158 23.456 131.55 22.856 133.246 22.856C134.99 22.856 136.374 23.424 137.398 24.56C138.438 25.68 138.958 27.256 138.958 29.288L138.934 29.528H129.694C129.726 30.68 130.11 31.608 130.846 32.312C131.582 33.016 132.462 33.368 133.486 33.368C134.894 33.368 135.998 32.664 136.798 31.256L138.766 32.216C138.238 33.208 137.502 33.984 136.558 34.544C135.63 35.104 134.574 35.384 133.39 35.384ZM129.862 27.704H136.606C136.542 26.888 136.206 26.216 135.598 25.688C135.006 25.144 134.206 24.872 133.198 24.872C132.366 24.872 131.646 25.128 131.038 25.64C130.446 26.152 130.054 26.84 129.862 27.704ZM143.185 35H140.977V23.24H143.089V25.16H143.185C143.409 24.536 143.865 24.008 144.553 23.576C145.257 23.128 145.945 22.904 146.617 22.904C147.257 22.904 147.801 23 148.249 23.192L147.577 25.328C147.305 25.216 146.873 25.16 146.281 25.16C145.449 25.16 144.721 25.496 144.097 26.168C143.489 26.84 143.185 27.624 143.185 28.52V35ZM156.029 35.384C155.165 35.384 154.373 35.2 153.653 34.832C152.949 34.464 152.405 33.976 152.021 33.368H151.925V35H149.813V17.816H152.021V23.24L151.925 24.872H152.021C152.405 24.264 152.949 23.776 153.653 23.408C154.373 23.04 155.165 22.856 156.029 22.856C157.581 22.856 158.893 23.464 159.965 24.68C161.069 25.912 161.621 27.392 161.621 29.12C161.621 30.864 161.069 32.344 159.965 33.56C158.893 34.776 157.581 35.384 156.029 35.384ZM155.669 33.368C156.725 33.368 157.613 32.968 158.333 32.168C159.053 31.384 159.413 30.368 159.413 29.12C159.413 27.888 159.053 26.872 158.333 26.072C157.613 25.272 156.725 24.872 155.669 24.872C154.597 24.872 153.701 25.272 152.981 26.072C152.277 26.872 151.925 27.888 151.925 29.12C151.925 30.368 152.277 31.392 152.981 32.192C153.701 32.976 154.597 33.368 155.669 33.368ZM162.969 29.12C162.969 27.312 163.537 25.816 164.673 24.632C165.825 23.448 167.273 22.856 169.017 22.856C170.761 22.856 172.201 23.448 173.337 24.632C174.489 25.816 175.065 27.312 175.065 29.12C175.065 30.944 174.489 32.44 173.337 33.608C172.201 34.792 170.761 35.384 169.017 35.384C167.273 35.384 165.825 34.792 164.673 33.608C163.537 32.424 162.969 30.928 162.969 29.12ZM165.177 29.12C165.177 30.384 165.545 31.408 166.281 32.192C167.017 32.976 167.929 33.368 169.017 33.368C170.105 33.368 171.017 32.976 171.753 32.192C172.489 31.408 172.857 30.384 172.857 29.12C172.857 27.872 172.489 26.856 171.753 26.072C171.001 25.272 170.089 24.872 169.017 24.872C167.945 24.872 167.033 25.272 166.281 26.072C165.545 26.856 165.177 27.872 165.177 29.12ZM178.679 31.4C178.679 31.976 178.919 32.456 179.399 32.84C179.895 33.224 180.471 33.416 181.127 33.416C182.055 33.416 182.879 33.072 183.599 32.384C184.335 31.696 184.703 30.888 184.703 29.96C184.015 29.416 183.055 29.144 181.823 29.144C180.927 29.144 180.175 29.36 179.567 29.792C178.975 30.224 178.679 30.76 178.679 31.4ZM181.535 22.856C183.167 22.856 184.455 23.296 185.399 24.176C186.343 25.04 186.815 26.232 186.815 27.752V35H184.703V33.368H184.607C183.695 34.712 182.479 35.384 180.959 35.384C179.663 35.384 178.575 35 177.695 34.232C176.831 33.464 176.399 32.504 176.399 31.352C176.399 30.136 176.855 29.168 177.767 28.448C178.695 27.728 179.927 27.368 181.463 27.368C182.775 27.368 183.855 27.608 184.703 28.088V27.584C184.703 26.816 184.399 26.168 183.791 25.64C183.183 25.096 182.471 24.824 181.655 24.824C180.423 24.824 179.447 25.344 178.727 26.384L176.783 25.16C177.855 23.624 179.439 22.856 181.535 22.856ZM191.513 35H189.305V23.24H191.417V25.16H191.513C191.737 24.536 192.193 24.008 192.881 23.576C193.585 23.128 194.273 22.904 194.945 22.904C195.585 22.904 196.129 23 196.577 23.192L195.905 25.328C195.633 25.216 195.201 25.16 194.609 25.16C193.777 25.16 193.049 25.496 192.425 26.168C191.817 26.84 191.513 27.624 191.513 28.52V35ZM202.577 33.368C203.665 33.368 204.553 32.976 205.241 32.192C205.961 31.408 206.321 30.384 206.321 29.12C206.321 27.888 205.961 26.872 205.241 26.072C204.537 25.272 203.649 24.872 202.577 24.872C201.521 24.872 200.633 25.272 199.913 26.072C199.193 26.872 198.833 27.888 198.833 29.12C198.833 30.368 199.193 31.384 199.913 32.168C200.633 32.968 201.521 33.368 202.577 33.368ZM202.217 35.384C200.681 35.384 199.361 34.776 198.257 33.56C197.169 32.328 196.625 30.848 196.625 29.12C196.625 27.392 197.169 25.912 198.257 24.68C199.361 23.464 200.681 22.856 202.217 22.856C203.081 22.856 203.865 23.04 204.569 23.408C205.289 23.776 205.841 24.264 206.225 24.872H206.321L206.225 23.24V17.816H208.433V35H206.321V33.368H206.225C205.841 33.976 205.289 34.464 204.569 34.832C203.865 35.2 203.081 35.384 202.217 35.384Z" fill="#515151"/>
</svg>
