<svg width="219" height="16" viewBox="0 0 219 16" fill="none" xmlns="http://www.w3.org/2000/svg">
<rect y="1" width="219" height="14" rx="7" fill="#E8F0FF"/>
<rect y="1" width="168" height="14" rx="7" fill="#4285F4"/>
<path d="M193.279 5.33L188.963 13.208L187.897 12.662L192.018 5.252H187.52L187.546 4.108H193.279V5.33ZM199.993 11.856V13H194.325V11.804L196.626 9.477C197.397 8.68833 197.93 8.099 198.225 7.709C198.519 7.31033 198.667 6.89433 198.667 6.461C198.667 6.071 198.515 5.73733 198.212 5.46C197.908 5.18267 197.518 5.044 197.042 5.044C196.634 5.044 196.283 5.16533 195.989 5.408C195.694 5.65067 195.503 5.94533 195.417 6.292L194.325 5.85C194.498 5.304 194.832 4.84467 195.326 4.472C195.82 4.09067 196.4 3.9 197.068 3.9C197.874 3.9 198.545 4.147 199.083 4.641C199.62 5.135 199.889 5.74167 199.889 6.461C199.889 7.319 199.416 8.24633 198.472 9.243L195.872 11.856H199.993ZM205.421 6.123C205.421 6.72967 205.2 7.254 204.758 7.696C204.324 8.12933 203.804 8.346 203.198 8.346C202.6 8.346 202.075 8.12933 201.625 7.696C201.191 7.24533 200.975 6.721 200.975 6.123C200.975 5.51633 201.191 4.99633 201.625 4.563C202.067 4.121 202.591 3.9 203.198 3.9C203.804 3.9 204.324 4.121 204.758 4.563C205.2 4.99633 205.421 5.51633 205.421 6.123ZM209.1 4.498L203.328 13.104L202.587 12.623L208.372 4.004L209.1 4.498ZM204.459 6.123C204.459 5.733 204.337 5.41233 204.095 5.161C203.861 4.901 203.562 4.771 203.198 4.771C202.842 4.771 202.543 4.901 202.301 5.161C202.058 5.41233 201.937 5.733 201.937 6.123C201.937 6.513 202.058 6.83367 202.301 7.085C202.543 7.345 202.842 7.475 203.198 7.475C203.562 7.475 203.861 7.34933 204.095 7.098C204.337 6.838 204.459 6.513 204.459 6.123ZM210.725 10.985C210.725 11.5917 210.504 12.116 210.062 12.558C209.628 12.9913 209.108 13.208 208.502 13.208C207.904 13.208 207.379 12.9913 206.929 12.558C206.495 12.1073 206.279 11.583 206.279 10.985C206.279 10.3783 206.495 9.85833 206.929 9.425C207.371 8.983 207.895 8.762 208.502 8.762C209.108 8.762 209.628 8.983 210.062 9.425C210.504 9.85833 210.725 10.3783 210.725 10.985ZM209.763 10.985C209.763 10.595 209.641 10.2743 209.399 10.023C209.165 9.763 208.866 9.633 208.502 9.633C208.146 9.633 207.847 9.763 207.605 10.023C207.362 10.2743 207.241 10.595 207.241 10.985C207.241 11.375 207.362 11.6957 207.605 11.947C207.847 12.207 208.146 12.337 208.502 12.337C208.866 12.337 209.165 12.2113 209.399 11.96C209.641 11.7 209.763 11.375 209.763 10.985Z" fill="#4285F4"/>
</svg>
